<svg width="128" height="128" viewBox="0 0 128 128" fill="none" xmlns="http://www.w3.org/2000/svg">
<circle cx="53.4165" cy="71.7931" r="47.2069" fill="#3694BD"/>
<mask id="mask0_19_2" style="mask-type:alpha" maskUnits="userSpaceOnUse" x="6" y="24" width="95" height="95">
<circle cx="53.4165" cy="71.7931" r="47.2069" fill="#3694BD"/>
</mask>
<g mask="url(#mask0_19_2)">
<circle cx="64.8993" cy="61.5862" r="47.2069" fill="#1DD1FA"/>
</g>
<path d="M54.0545 119C80.4784 119 101.899 97.5791 101.899 71.1552C101.899 61.2383 88.9291 65.6419 83.3993 63.5737L77.6579 67.334L73.8303 85.8276L48.951 82L43.8476 89.4786L20.202 104.966C28.8619 113.636 40.8318 119 54.0545 119Z" fill="#6F6F6F"/>
<path d="M6.20963 71.1552C6.20963 44.7312 27.6305 23.3103 54.0545 23.3103L67.4331 35.431L62.9855 53.2931L77.6579 44.3621L81.4855 57.1207C77.5952 59.9678 72.765 63.2931 67.4331 66.6897L57.882 62.8621L57.2441 72.8755C38.4793 83.6939 17.2354 92.653 8.50139 85.8276C7.01332 81.204 6.20963 76.2735 6.20963 71.1552Z" fill="#6F6F6F"/>
<mask id="mask1_19_2" style="mask-type:alpha" maskUnits="userSpaceOnUse" x="17" y="23" width="96" height="88">
<mask id="mask2_19_2" style="mask-type:alpha" maskUnits="userSpaceOnUse" x="17" y="8" width="103" height="103">
<circle cx="68.7269" cy="59.0345" r="51.0345" fill="#D9D9D9"/>
</mask>
<g mask="url(#mask2_19_2)">
<path d="M112.106 74.3448C112.106 102.53 89.2573 125.379 61.0717 125.379C47.1625 125.379 34.5529 119.815 25.3476 110.791C25.3476 110.791 10.0372 89.897 10.0372 75.6207C10.0372 47.4351 32.8861 23.3103 61.0717 23.3103C78.3344 23.3103 93.5953 31.8814 102.831 45C104.995 48.0737 106.828 51.397 108.279 54.9182C110.745 60.9062 112.106 67.4666 112.106 74.3448Z" fill="#D9D9D9"/>
</g>
</mask>
<g mask="url(#mask1_19_2)">
<path d="M57.882 111.613C84.306 111.613 101.899 97.5791 101.899 71.1552C101.899 61.2383 88.9291 68.7579 83.3993 66.6897L78.9338 68.6035V93.4828L48.951 83.2759L44.4855 91.569L20.2441 104.966C22.7506 107.475 25.531 109.708 28.5372 111.613L57.882 87.7414V111.613Z" fill="white"/>
<path d="M54.0545 23.3103C27.6305 23.3103 6.20963 44.7312 6.20963 71.1552C6.20963 76.2735 7.01332 81.204 8.50139 85.8276C17.2354 92.653 32.738 81.9735 51.5027 71.1552L47.6751 51.3793L67.4331 66.6897C72.765 63.2931 77.5952 59.9678 81.4855 57.1207C70.5067 56.2863 56.1989 54.8638 54.0545 23.3103Z" fill="white"/>
</g>
<path d="M58.7714 13.7926C63.6805 9.64182 77.3179 5.94203 92.5946 24.3495L74.6285 36.5009L69.4215 23.5778L62.9095 28.7524L58.7714 13.7926Z" fill="#D9D9D9"/>
<path d="M73.1924 16.2931L62.9855 28.4138L59.1579 15.6552L73.8303 13.7414L79.5717 24.5862L90.4165 25.8621L74.4683 36.069L73.1924 16.2931Z" fill="#737373"/>
<path d="M101.166 17.9032C111.156 19.806 129.28 32.8878 121.859 69.9926L89.036 60.0028L99.7393 40.7369L86.8953 37.8827L101.166 17.9032Z" fill="#D9D9D9"/>
<path d="M112.449 38.1206L87.3872 37.639L99.2615 20.2325L116.221 36.3646L108.604 54.2187L117.832 68.8208L89.4075 59.376L112.449 38.1206Z" fill="#737373"/>
</svg>
